HIERARCHY
ROOT Pelvis
{
	OFFSET 0.000000 0.000000 0.000000
	CHANNELS 6 Xposition Yposition Zposition Zrotation Yrotation Xrotation 
	JOINT Left_hip
	{
		OFFSET 0.068973 -0.091024 -0.007589
		CHANNELS 3 Zrotation Yrotation Xrotation
		JOINT Left_knee
		{
			OFFSET 0.036482 -0.391037 -0.003979
			CHANNELS 3 Zrotation Yrotation Xrotation
			JOINT Left_ankle
			{
				OFFSET -0.012239 -0.415469 -0.043440
				CHANNELS 3 Zrotation Yrotation Xrotation
				JOINT Left_foot
				{
					OFFSET 0.023806 -0.058558 0.118702
					CHANNELS 3 Zrotation Yrotation Xrotation
					End Site
					{
						OFFSET 0.000000 0.000000 0.000000
					}
				}
			}
		}
	}
	JOINT Right_hip
	{
		OFFSET -0.066552 -0.090468 -0.003847
		CHANNELS 3 Zrotation Yrotation Xrotation
		JOINT Right_knee
		{
			OFFSET -0.042435 -0.398340 -0.006400
			CHANNELS 3 Zrotation Yrotation Xrotation
			JOINT Right_ankle
			{
				OFFSET 0.014931 -0.415421 -0.041327
				CHANNELS 3 Zrotation Yrotation Xrotation
				JOINT Right_foot
				{
					OFFSET -0.021472 -0.049410 0.121889
					CHANNELS 3 Zrotation Yrotation Xrotation
					End Site
					{
						OFFSET 0.000000 0.000000 0.000000
					}
				}
			}
		}
	}
	JOINT Spine1
	{
		OFFSET -0.002904 0.105700 -0.022855
		CHANNELS 3 Zrotation Yrotation Xrotation
		JOINT Spine2
		{
			OFFSET 0.004179 0.132554 -0.002501
			CHANNELS 3 Zrotation Yrotation Xrotation
			JOINT Spine3
			{
				OFFSET 0.001987 0.049603 0.025988
				CHANNELS 3 Zrotation Yrotation Xrotation
				JOINT Neck
				{
					OFFSET -0.003935 0.211336 -0.045638
					CHANNELS 3 Zrotation Yrotation Xrotation
					JOINT Head
					{
						OFFSET 0.003906 0.065991 0.051018
						CHANNELS 3 Zrotation Yrotation Xrotation
						End Site
						{
							OFFSET 0.000000 0.000000 0.000000
						}
					}
				}
				JOINT Left_collar
				{
					OFFSET 0.072882 0.117751 -0.036270
					CHANNELS 3 Zrotation Yrotation Xrotation
					JOINT Left_shoulder
					{
						OFFSET 0.082118 0.032630 -0.005771
						CHANNELS 3 Zrotation Yrotation Xrotation
						JOINT Left_elbow
						{
							OFFSET 0.263305 -0.015144 -0.028095
							CHANNELS 3 Zrotation Yrotation Xrotation
							JOINT Left_wrist
							{
								OFFSET 0.250741 0.010115 -0.000759
								CHANNELS 3 Zrotation Yrotation Xrotation
								JOINT Left_palm
								{
									OFFSET 0.080683 -0.009989 -0.013613
									CHANNELS 3 Zrotation Yrotation Xrotation
									End Site
									{
										OFFSET 0.000000 0.000000 0.000000
									}
								}
							}
						}
					}
				}
				JOINT Right_collar
				{
					OFFSET -0.074811 0.116132 -0.040385
					CHANNELS 3 Zrotation Yrotation Xrotation
					JOINT Right_shoulder
					{
						OFFSET -0.085089 0.032943 -0.007484
						CHANNELS 3 Zrotation Yrotation Xrotation
						JOINT Right_elbow
						{
							OFFSET -0.254763 -0.014219 -0.020321
							CHANNELS 3 Zrotation Yrotation Xrotation
							JOINT Right_wrist
							{
								OFFSET -0.256597 0.009233 -0.005063
								CHANNELS 3 Zrotation Yrotation Xrotation
								JOINT Right_palm
								{
									OFFSET -0.080528 -0.007219 -0.010379
									CHANNELS 3 Zrotation Yrotation Xrotation
									End Site
									{
										OFFSET 0.000000 0.000000 0.000000
									}
								}
							}
						}
					}
				}
			}
		}
	}
}
MOTION
Frames: 14
Frame Time: 0.100000
-0.810845 0.063854 0.991382 177.331746 20.562766 -29.342418 17.871009 16.742414 -46.381126 -8.514039 15.109312 78.198699 0.656922 12.520713 -4.932169 2.103457 8.711016 -17.073355 -13.133138 -5.971065 -49.120110 2.251556 -6.256562 83.876980 6.680467 -6.953812 -16.705512 -22.613302 0.413019 -2.734352 1.453046 -2.281845 46.788914 -4.439517 -4.606436 20.591406 -0.097504 0.411542 3.633132 -9.307508 16.614544 38.776737 7.613976 5.997176 -14.067450 -18.352587 -24.747801 8.316613 -27.238616 -9.447225 -10.112990 51.111018 -55.042373 -36.478069 26.673089 -13.709212 -2.464921 -19.929755 -6.765977 -10.448509 10.625033 21.604978 11.493715 55.441000 -11.697697 -5.459157 -10.235206 81.048905 13.554708 -20.721461 17.111793 -15.253795 21.682514 3.263759 0.872961 
-0.809342 0.080153 0.987528 177.299359 21.865996 -36.992130 18.201092 14.951968 -41.505318 -9.413218 13.433548 80.728631 -0.292721 11.938609 -3.754338 4.590824 9.606750 -16.699119 -14.452519 -6.048205 -42.680473 1.809245 -5.457283 85.750459 3.406546 -6.479383 -15.217324 -17.516963 -1.640781 -3.933017 0.441730 -0.964488 42.170976 -3.806919 -5.288619 27.136241 -0.441745 0.196313 -0.224544 -7.494701 15.120189 41.531206 8.693849 6.537372 -13.496383 -26.154454 -26.292218 11.800453 -20.764586 -11.037975 -8.631204 47.661284 -56.892219 -33.447236 27.143134 -16.349256 0.938034 -21.287948 -7.763729 -10.407999 16.218049 22.579858 12.675689 50.221463 -10.240607 -4.746240 -23.647407 77.435378 -2.387612 -21.270441 18.446529 -12.868168 23.309027 3.810944 1.593928 
-0.807989 0.094509 0.985687 177.220429 22.276734 -43.578744 19.393716 14.494806 -37.293632 -9.389744 12.630849 83.243171 -1.461160 11.456238 -1.531809 6.471661 9.865334 -18.161705 -15.605246 -6.260233 -36.972418 1.779080 -5.188870 87.120546 2.038661 -5.639898 -14.538243 -15.756525 -2.888659 -5.001890 0.205219 -0.368531 37.761875 -3.392249 -5.386782 31.185449 -0.657968 0.291426 -2.173514 -7.329803 13.351870 40.815450 7.624729 5.475408 -13.263305 -28.805980 -27.322413 13.535381 -21.732764 -13.165469 -6.606892 42.859231 -59.198211 -27.215802 23.597648 -16.994431 4.125900 -22.149795 -8.753784 -11.186668 18.195939 23.989753 13.059965 45.836180 -6.797719 -4.700748 -30.348858 73.876783 -10.054089 -19.053354 18.803847 -8.804956 24.541614 4.562807 0.732266 
-0.805890 0.106987 0.979556 176.994553 22.062934 -50.235759 20.861104 14.421309 -33.063247 -9.636019 11.649256 84.808904 -3.936343 13.418847 1.696880 11.756707 8.792577 -19.611859 -15.986941 -5.959158 -30.931970 2.627970 -4.705527 87.244398 1.554124 -5.779650 -14.057106 -16.285155 -3.039385 -6.859010 0.540553 0.002432 35.891118 -3.040843 -5.613217 34.404975 -0.658600 0.564387 -3.432058 -8.246160 10.498414 39.034668 7.106694 4.201095 -14.147910 -30.889862 -28.678019 15.636660 -20.272843 -16.392191 -6.250223 34.024616 -60.730447 -17.614531 21.317950 -17.476221 7.102602 -23.232602 -9.536476 -11.343755 20.148579 26.991090 13.361247 39.296479 -1.836284 -5.679935 -31.326675 70.248408 -14.051378 -16.681378 18.927179 -5.696922 25.050776 4.776724 0.554379 
-0.798491 0.115890 0.970111 176.520455 21.215533 -54.546494 23.237566 14.989436 -34.792947 -6.415729 11.852692 87.490826 -6.424064 16.038138 14.254314 15.995838 9.039226 -22.818023 -14.470081 -4.856810 -27.386588 2.910917 -4.359879 86.496677 -0.001188 -6.584033 -13.384964 -16.720300 -3.142439 -7.458114 0.667512 1.013136 34.319389 -2.291402 -6.153216 35.795711 -0.029791 0.955712 -4.747279 -8.789542 6.975580 38.803315 8.512722 1.716824 -13.414445 -31.450272 -30.345489 17.166024 -18.780183 -18.787113 -5.555213 22.009257 -61.287959 -5.562283 20.195054 -16.626788 6.562551 -24.531081 -9.934876 -9.710174 21.075578 30.168975 13.684328 34.018458 2.967374 -5.766082 -28.812579 67.934810 -14.108211 -16.133793 18.239891 -4.434996 26.223975 5.099481 0.033299 
-0.793642 0.119477 0.963985 175.735706 21.245483 -56.813325 25.116512 16.640961 -37.283280 -3.426314 13.915625 89.927975 -4.719819 17.472259 13.069259 14.402399 8.981591 -21.615855 -13.745192 -4.613073 -25.508132 2.869548 -4.081434 85.721194 -0.107302 -6.812397 -11.971119 -15.374427 -3.209945 -6.283565 -0.345368 1.917652 32.184268 -1.267707 -7.034742 34.688927 0.028375 0.918663 -5.477190 -7.961924 1.946182 40.843773 10.406447 -3.284320 -8.807726 -30.649780 -30.997829 17.894968 -17.571504 -19.973179 -3.567124 7.756383 -61.219692 9.468082 17.149564 -15.851549 6.055515 -24.239442 -9.687472 -9.463136 21.155360 30.951178 13.346640 32.608357 4.093951 -4.831350 -23.641594 70.339252 -9.047669 -14.958543 17.326652 -5.856100 26.377231 4.511160 0.192933 
-0.791587 0.121023 0.963054 174.165868 21.344338 -57.500151 27.221278 18.735535 -39.805444 -4.325431 14.927545 90.397034 -5.296726 12.130487 12.265621 10.838614 10.594153 -21.764914 -13.232246 -4.847000 -25.577144 2.229198 -4.542430 85.788691 -0.528197 -5.758198 -10.093254 -13.370874 -4.203200 -4.009548 -1.734151 1.966197 29.919787 -0.323412 -7.618582 31.972445 -0.166158 0.276639 -6.039898 -6.591251 -2.437632 44.283587 10.027644 -8.787542 -2.045516 -30.172472 -28.624610 17.040078 -20.383347 -19.225329 1.165894 0.141308 -65.228984 20.040061 14.137430 -16.111486 5.569581 -24.685131 -10.137653 -9.507973 21.669585 27.755273 12.284548 34.699702 1.582771 -1.469273 -20.159705 75.962998 -2.489543 -13.070568 16.991417 -7.253643 26.633287 4.875840 0.225698 
-0.795157 0.119594 0.961457 172.968151 20.844158 -57.637748 29.179210 19.187256 -40.134319 -4.405549 14.281034 88.570169 -5.329655 9.362934 13.598993 8.430344 12.215795 -22.450587 -12.979859 -4.799106 -26.014618 1.372503 -5.283122 85.609603 -1.118209 -4.108978 -8.105635 -11.896141 -5.356110 -2.261741 -2.581540 1.847741 28.151790 0.242953 -7.586294 31.251145 -0.270115 -0.584667 -5.751377 -4.575264 -4.771168 44.157863 8.931870 -11.094279 0.337251 -32.291538 -24.044739 16.493034 -28.306239 -16.031076 4.649512 11.891133 -73.517244 8.865484 14.090367 -15.554334 2.833520 -26.483761 -10.399840 -8.786914 22.991965 22.135366 11.794861 39.185210 -4.130618 0.876840 -30.979922 83.569867 -9.048339 -13.177220 16.445330 -6.097531 28.125414 5.815400 0.310318 
-0.805763 0.120408 0.959408 171.476063 21.033470 -57.456611 28.728478 16.921602 -38.570760 -4.957756 12.493307 84.254534 -2.907885 7.931202 14.138784 3.481311 13.476432 -23.616310 -13.500584 -5.353538 -27.612179 0.724840 -6.498835 86.491159 -0.262671 -3.279407 -6.368146 -12.104392 -5.995845 -1.339599 -2.835336 1.690609 26.940717 0.544418 -7.126816 31.178019 -0.688899 -1.232194 -4.867245 -2.613368 -6.628464 42.819976 9.157555 -12.898390 1.650161 -33.391092 -19.986666 15.821896 -36.802558 -12.960665 7.250915 34.343212 -78.977339 -11.998106 18.257438 -14.644723 0.297788 -27.504994 -10.257249 -8.783772 23.589019 15.407597 11.666313 49.752431 -13.591520 1.721618 -132.539060 86.663067 -105.718013 -19.032266 15.327136 -5.837332 30.216572 6.966352 -0.185500 
-0.814617 0.119714 0.959314 170.096280 20.572915 -55.859669 27.969342 15.168537 -36.096819 -4.400525 11.378302 78.817950 -0.561843 8.421030 14.232180 -0.000433 13.603184 -24.461164 -12.743455 -5.917418 -30.283047 0.107692 -8.148568 84.905991 0.816245 -4.358319 -7.613490 -14.124012 -4.973846 0.354930 -3.320452 1.379405 26.025606 0.451571 -6.625710 29.315747 -1.150273 -1.778743 -3.183341 -1.725961 -7.439212 42.214704 9.819155 -13.444462 4.927369 -31.561975 -15.112027 14.081671 -43.339691 -10.524891 9.034044 65.462100 -82.940755 -42.508375 16.678656 -12.655945 -1.910202 -28.719526 -10.575789 -10.087255 22.767484 9.154840 10.558441 60.421124 -19.518079 1.478000 -162.210207 83.164678 -135.240869 -15.771788 13.341631 -11.929109 31.294060 7.627073 -0.225050 
-0.822135 0.117558 0.958657 168.862314 20.736459 -54.262841 25.722217 13.844082 -34.039809 -5.808621 10.755465 75.827733 3.408827 9.232161 1.796807 -2.588595 13.517428 -19.373664 -13.044623 -8.038140 -32.350570 -2.805462 -10.901186 81.642914 1.248586 -7.085268 -8.278266 -12.491277 -5.065679 1.748055 -4.761430 0.816488 26.189262 0.383125 -6.847370 27.838764 -1.373714 -2.210277 -2.100758 -1.462283 -8.228024 42.608764 10.393500 -12.262617 5.448937 -29.887985 -13.039322 13.673295 -43.843213 -8.251367 9.321464 106.045241 -85.422975 -80.125223 14.714354 -12.905490 2.381336 -26.852335 -10.070980 -11.653832 21.174414 7.199811 9.898739 60.214069 -19.126815 0.769910 170.201080 79.908861 -159.565936 -13.161221 14.755678 -8.335980 29.631375 6.989639 0.333028 
-0.829382 0.119489 0.960513 168.870132 18.492291 -53.538646 27.344331 14.198005 -35.729150 -5.074726 10.370911 78.413381 1.880949 9.566072 3.672398 -0.579134 13.710007 -18.874765 -11.899928 -8.770751 -33.972176 -3.608353 -12.829808 79.629852 -0.447877 -7.647151 -6.355822 -10.306699 -5.849875 1.069416 -5.153910 1.292482 28.223056 -0.142148 -5.896983 27.127599 -1.219773 -1.538636 -2.451075 -0.698235 -9.502598 40.632895 10.785971 -11.715624 4.306012 -29.477888 -14.315151 13.577123 -41.122821 -6.516958 9.744999 147.021002 -85.288676 -122.830728 11.403498 -11.790669 0.690780 -26.144749 -9.327073 -9.577033 19.871356 11.179068 10.554746 49.128267 -14.174038 3.091730 140.676019 74.294496 173.737484 -7.658572 13.873408 1.048463 27.853914 6.864126 -0.028043 
-0.831164 0.116789 0.966361 168.055244 17.285712 -52.581336 28.648161 15.070257 -35.848057 -5.457432 10.170219 78.326091 0.443983 10.999265 0.337486 3.860725 13.006453 -15.260023 -11.299717 -10.097797 -33.899566 -3.495022 -15.139494 78.577701 -1.408298 -7.094081 -3.582624 -8.060766 -6.863760 -0.936453 -5.522442 2.044323 29.310193 0.006244 -5.072393 27.151875 -0.568193 -0.564145 -3.448709 2.121311 -13.332044 36.536213 13.496091 -12.723767 -0.024404 -29.991669 -16.783960 13.341183 -38.010676 -7.089705 10.903565 160.589283 -86.117052 -140.040071 7.437782 -11.210158 0.037566 -25.496457 -9.131910 -10.080597 17.876980 17.547615 10.924715 35.551012 -7.765715 3.685580 132.337944 69.395364 160.624402 -1.296314 14.061680 -0.291847 25.075691 5.819408 0.366044 
-0.833158 0.110680 0.971592 167.656949 17.499855 -51.428860 29.273587 15.676421 -36.888081 -5.778555 10.260461 79.053802 -2.180510 11.253653 0.582950 8.256555 11.792836 -14.435313 -11.574606 -11.212831 -32.989436 -2.961569 -16.250850 76.668336 -1.353470 -7.398555 -2.397039 -10.039798 -6.412877 -3.203993 -5.140061 2.874707 30.448680 -0.086939 -4.525531 26.004157 0.181354 0.295097 -4.411943 4.101840 -16.994096 32.022311 17.102316 -14.163645 -4.104633 -29.090207 -18.883411 12.455615 -38.045293 -9.466258 12.363409 146.259026 -88.607445 -129.143190 2.577057 -11.181378 -1.240799 -25.755112 -9.534626 -11.205174 15.087114 23.181594 10.035978 28.977347 -1.789959 3.386286 122.991623 73.065704 141.748156 7.240938 15.697222 -10.923415 22.534487 5.373558 1.087632 
